<svg xmlns="http://www.w3.org/2000/svg" xmlns:xlink="http://www.w3.org/1999/xlink" width="153.373" height="19.48" viewBox="0 0 153.373 19.48"><defs><clipPath id="a"><rect width="153.373" height="19.48" fill="none"/></clipPath></defs><g transform="translate(0 0)"><g transform="translate(0 0)" clip-path="url(#a)"><path d="M84.646,19.571l.293-2.773a8.428,8.428,0,0,0,3.7.9C90.3,17.7,91.5,17,91.5,15.74c0-1.195-.654-1.826-3.043-2.705-2.795-1.014-3.989-2.276-3.989-4.508,0-2.795,2.276-4.553,5.635-4.553a11.716,11.716,0,0,1,3.809.563l-.248,2.57a8.339,8.339,0,0,0-3.2-.676c-1.668,0-2.727.7-2.727,1.781,0,.969.519,1.578,2.84,2.411,2.93,1.037,4.17,2.39,4.17,4.711,0,3.02-2.3,4.914-5.928,4.914a12.543,12.543,0,0,1-4.17-.676" transform="translate(-50.383 -2.37)" fill="#1a1718"/><path d="M162.2,4.645h4.237l3.967,7.776c.586,1.127,1.668,3.493,2.141,4.6h.045c-.068-1.15-.135-4.193-.135-5.77v-6.6h2.862V20.377h-4.011l-4.035-7.708c-.812-1.555-1.849-3.809-2.277-4.846h-.045c.068.969.113,3.854.113,5.207v7.348H162.2Z" transform="translate(-96.75 -2.771)" fill="#1a1718"/><rect width="3.178" height="15.732" transform="translate(84.626 1.874)" fill="#1a1718"/><path d="M229.612,4.645h3.4l2.277,9.421c.113.519.608,2.8.744,3.854h.045c.157-1.059.609-3.335.721-3.854l2.051-9.421h4.215l2.164,9.421c.135.541.563,2.817.721,3.854H246c.158-1.037.609-3.268.744-3.854L249,4.645h3.155l-4.215,15.732h-3.99L241.468,9.852c-.158-.721-.473-2.1-.586-2.953h-.045c-.113.857-.361,2.209-.519,2.953l-2.344,10.526h-4.012Z" transform="translate(-136.96 -2.771)" fill="#1a1718"/><rect width="3.178" height="15.732" transform="translate(119.635 1.874)" fill="#1a1718"/><path d="M319.552,19.571l.293-2.773a8.428,8.428,0,0,0,3.7.9c1.668,0,2.863-.7,2.863-1.961,0-1.195-.654-1.826-3.043-2.705-2.795-1.014-3.989-2.276-3.989-4.508,0-2.795,2.276-4.553,5.635-4.553a11.716,11.716,0,0,1,3.809.563l-.248,2.57a8.34,8.34,0,0,0-3.2-.676c-1.668,0-2.727.7-2.727,1.781,0,.969.519,1.578,2.84,2.411,2.93,1.037,4.17,2.39,4.17,4.711,0,3.02-2.3,4.914-5.928,4.914a12.543,12.543,0,0,1-4.17-.676" transform="translate(-190.501 -2.37)" fill="#1a1718"/><path d="M127.083,13.593h5.68V11.046h-5.68V7.259h5.293l.882-2.614H123.95V20.377h9.376V17.74h-6.243Z" transform="translate(-73.935 -2.77)" fill="#1a1718"/><path d="M359.989,13.593h5.68V11.046h-5.68V7.259h5.293l.882-2.614h-9.308V20.377h9.376V17.74h-6.243Z" transform="translate(-212.86 -2.77)" fill="#1a1718"/><path d="M7.121,3.121l5.626,5.625a5.122,5.122,0,1,0,0-7.248L11.6,2.65l1.62,1.62,1.151-1.15a2.83,2.83,0,1,1,0,4L8.742,1.5A5.128,5.128,0,0,0,0,5.122,5.747,5.747,0,0,0,1.771,9.248l9.2,9.765a1.487,1.487,0,0,0,2.189-.026l.411-.457,4.14-4.486a1.891,1.891,0,0,0-2.593-.3l-3.04,3.178-8.935-9.6a2.932,2.932,0,0,1-.851-2.2,2.832,2.832,0,0,1,4.829-2" transform="translate(0 0)" fill="#e50019" fill-rule="evenodd"/></g></g></svg>